PathFileType	4	(X/Y/Z)	Walk6.trc
DataRate	CameraRate	NumFrames	NumMarkers	Units	OrigDataRate	OrigDataStartFrame	OrigNumFrames
200.000000	200.000000	9	58	mm	200.000000	408	562
Frame#	Times		RBHD		RASI		RACR1		RUA1		RFA1		RCAR		C7		LFA1		RElbow		RTH3		RTH2		LElbowM		RTB3		LTH2		RTH1		RTB1		RLFC		RMT1		RTB2		RMT5		RTB4		LACR1		LTH3		LElbow		RWRR		LTH4		LWRU		LPSI		RPSI		LTB1		T10		LWRR		LLFC		RWRU		LBHD		LTB3		LTB2		RFHD		LTH1		LTB4		LMT1		LFHD		RBack		LMMAL		RTH4		LASI		LCAL		LLMAL		CLAV		LCAR		LMT5		RLMAL		LToe		RToe		RMMAL		LUA1		RElbowM		RCAL
			X1	Y1	Z1	X2	Y2	Z2	X3	Y3	Z3	X4	Y4	Z4	X5	Y5	Z5	X6	Y6	Z6	X7	Y7	Z7	X8	Y8	Z8	X9	Y9	Z9	X10	Y10	Z10	X11	Y11	Z11	X12	Y12	Z12	X13	Y13	Z13	X14	Y14	Z14	X15	Y15	Z15	X16	Y16	Z16	X17	Y17	Z17	X18	Y18	Z18	X19	Y19	Z19	X20	Y20	Z20	X21	Y21	Z21	X22	Y22	Z22	X23	Y23	Z23	X24	Y24	Z24	X25	Y25	Z25	X26	Y26	Z26	X27	Y27	Z27	X28	Y28	Z28	X29	Y29	Z29	X30	Y30	Z30	X31	Y31	Z31	X32	Y32	Z32	X33	Y33	Z33	X34	Y34	Z34	X35	Y35	Z35	X36	Y36	Z36	X37	Y37	Z37	X38	Y38	Z38	X39	Y39	Z39	X40	Y40	Z40	X41	Y41	Z41	X42	Y42	Z42	X43	Y43	Z43	X44	Y44	Z44	X45	Y45	Z45	X46	Y46	Z46	X47	Y47	Z47	X48	Y48	Z48	X49	Y49	Z49	X50	Y50	Z50	X51	Y51	Z51	X52	Y52	Z52	X53	Y53	Z53	X54	Y54	Z54	X55	Y55	Z55	X56	Y56	Z56	X57	Y57	Z57	X58	Y58	Z58

408	2.04	457.56	1599.5	349.83	513.63	948.56	421.51	498.01	1412	439.2	458.45	1224.3	527.05	481.99	960.47	576.5	548.75	788.89	570.38	427.55	1455.9	292.69	429.92	983.2	-24.869	418.92	1098.3	561.23	536.64	560.53	451.55	575.94	674.04	443.26	341.89	1121.9	94.526	392.4	239.85	358.75	584.27	672.21	133.93	480.19	741.23	462.31	532.03	368.29	359.9	547.91	466.26	442.7	356.03	74.809	319.46	451.14	314.28	432.22	331.81	84.141	399.05	464.21	304.17	361.4	457.11	1440.2	115.7	526.68	572.63	116.49	360.31	1122.3	17.861	560.83	846.75	528.44	517.1	659.96	95.816	401.56	865.66	-22.939	350.63	978.07	204.48	339.97	973.98	308.7	557.41	365.65	207.76	335.98	1144.5	269.07	477.75	872.48	7.7573	527.83	455.66	138.98	494.97	831.32	567.41	453.53	1589.2	211.33	514.53	186.34	228.11	513.93	273.49	149.16	640.28	1629.1	308.9	508.3	756.48	83.078	533.73	276.1	217.95	591.08	34.661	285.25	636.42	1617.1	228.65	360.46	1363.3	391	459.04	91.407	290.15	508.01	649.93	460.35	530.29	967.4	120.87	381.54	31.808	246.04	434.52	71.373	202.01	562.7	1377.1	274.62	470.25	821.56	-42.507	567.04	31.672	194.14	275.35	206.33	396.25	638.17	29.219	274.16	397.38	59.724	349.56	309.65	197.21	311.27	404.65	1246.3	26.366	391.17	1069.7	469.77	208.49	197.99	350.53
409	2.045	463.67	1600.3	350.6	520.75	949.49	421.14	503.31	1412.4	439.61	463.12	1224.5	526.8	483.41	960.38	576.42	548	787.48	571.07	433.55	1456.5	292.95	439.65	984.78	-24.984	422.29	1098.8	560.65	546.73	562.47	452.38	584.59	676.36	443.62	349.29	1122.5	93.795	408.25	239.05	358.81	587.8	671.48	133.68	487.98	742.29	462.73	544.55	369.88	360.49	559.39	468.01	443.47	375.24	74.465	319.35	465.22	314.09	432.68	350.95	82.388	400.06	478.69	304.64	361.75	463.31	1441.2	116.05	529.24	572.6	115.92	367.86	1123.1	17.118	561.01	845.3	529.08	520.44	659.92	95.496	412.99	866.69	-22.944	356.57	978.52	204.51	345.79	974.81	309.49	558.48	365.49	206.66	342.21	1145.2	269.26	488.8	874.73	8.131	528.9	455.44	138.02	494.71	831.21	567.73	459.43	1590.2	212.16	514.61	186.32	227.65	514.3	273.16	148.27	646.57	1629.1	309.56	514.19	757.08	82.662	534.18	275.9	217.32	591.1	34.701	285.13	642.66	1617.5	229.28	366.04	1363.7	390.56	458.92	92.47	290.26	517.15	651.57	460.95	536.31	967.81	120.57	381.71	31.229	246.76	434.13	71.423	201.69	568.6	1377.7	275.04	483.21	823.82	-42.165	567.07	31.603	194.01	291.61	202.73	396.74	638.22	29.231	274.11	417.62	59.51	350.36	325.91	194.31	311.42	411.43	1247.4	26.146	394.79	1070.6	469	224.67	192.38	351.08
410	2.05	469.88	1600.7	351.33	526.66	950.07	421.04	509.05	1412.8	440.08	467.72	1224.7	526.4	485.67	960.42	576.03	547.35	786.51	571.66	439.39	1457.2	293	449.14	986.38	-25.07	425.52	1099.1	559.9	556.82	564.49	453.07	594.01	678.29	444.2	356.61	1123.1	93.213	423.62	237.84	359.16	591.31	670.73	133.45	495.98	743.7	463.19	557.19	371.44	361.03	570.81	469.79	443.89	394.64	72.376	319.29	480.12	314.29	433.08	370.48	80.643	401.17	493.33	305.09	361.95	469.53	1442	116.35	531.84	572.6	115.28	375.49	1123.6	16.412	561.17	843.83	529.8	525.01	659.81	94.785	424.18	867.87	-22.653	362.77	979.33	205.12	352.3	975.35	309.89	559.34	365.23	205.59	348.34	1145.4	269.16	499.83	876.91	8.5501	529.79	455.27	137.13	494.48	830.96	567.96	465.66	1591	212.97	514.77	186.13	227.17	514.67	272.96	147.48	652.88	1629.3	310.14	517.85	757.42	83.1	534.48	275.72	216.65	591.12	34.733	285.07	648.68	1617.7	229.84	371.43	1364.1	390.41	459.9	92.156	291.46	525.98	652.92	461.61	542.31	968.18	120.4	381.44	31.7	246.44	434.86	71.416	201.95	574.55	1378.3	275.39	494.05	825.93	-41.598	567.08	31.543	193.9	307.88	199	397.08	638.27	29.178	274.07	437.99	58.991	350.99	342.44	191.11	312.62	418.58	1248.3	25.751	398.21	1071.6	468.03	241.15	186.56	351.44
411	2.055	476.14	1600.9	352.18	532.25	950.53	420.99	514.77	1413	440.3	472.08	1224.8	526.15	486.44	959.99	576.13	546.09	785.53	572.71	445.09	1457.5	293.18	458.89	987.49	-25.152	428.55	1099.5	559.12	567.55	566.33	453.85	602.29	680.66	444.45	363.8	1124	92.574	438.81	236.59	359.9	594.64	670.02	133.36	502.79	744.67	464.06	570.02	373.09	361.47	581.78	471.37	444.46	415.52	70.959	321.19	493.33	313.77	433.53	390.25	78.703	402.03	507.94	305.43	362.12	475.91	1442.8	116.53	534.35	572.52	114.75	382.98	1124.2	15.865	561.5	842.5	530.46	528.34	660.24	95.032	435.53	868.87	-22.681	369.2	979.41	205.71	358.71	975.78	310.37	559.97	364.97	204.62	354.41	1145.6	269.21	511	879.34	8.9974	530.65	455.13	136.45	494.31	830.5	568.12	471.63	1591.9	213.73	515.78	185.77	226.78	514.82	272.88	146.89	659.09	1629.5	310.96	521.67	757.55	83.269	535.11	275.58	215.77	591.18	34.768	285	654.79	1618.1	230.47	377.33	1364.4	390.17	459.8	92.187	290.1	535.05	654.51	462.03	547.96	968.61	120.31	381.24	31.029	247.28	434.82	71.404	201.76	580.52	1378.6	275.64	506.33	827.99	-41.045	567.12	31.508	193.76	324.24	194.91	397.5	638.29	29.159	274.01	458.44	58.462	351.93	358.89	188.08	312.69	425.75	1249.2	25.269	401.95	1072.4	467.08	257.75	180.53	352.07
412	2.06	482.29	1601.2	353.13	538.14	950.91	421.06	520.37	1413.1	440.54	476.66	1225	526.13	488	959.64	576.09	545.36	784.36	573.59	451.1	1457.7	293.5	468.69	988.9	-25.267	431.9	1100.1	558.42	576.87	567.92	454.5	610.14	682.93	444.5	371.25	1124.4	91.852	454.26	234.93	360.21	598.38	669.39	133.19	510.21	745.93	465.06	582.91	374.66	361.89	592.75	472.9	444.61	435.88	69.344	323.11	506.74	313.34	434.31	410.22	76.882	402.78	522.15	304.93	362.82	482.15	1443.4	116.85	536.81	572.43	114.1	390.47	1124.7	14.936	561.88	841.14	531.04	531.16	660.35	94.993	447.08	869.96	-22.649	375.51	979.77	206.27	364.85	976.08	310.83	560.79	364.75	203.62	360.61	1145.9	269.13	522.19	881.72	9.2131	531.8	454.95	135.7	494.08	829.99	568.21	477.46	1592.5	214.5	516.2	186	225.81	514.86	272.67	146.26	665.3	1629.4	311.71	525.89	757.59	83.425	535.76	275.45	214.89	591.22	34.792	284.92	660.88	1618.5	231.17	383.08	1364.7	389.9	459.68	92.381	289.14	543.91	655.63	462.85	553.8	968.73	120.07	381.38	31.819	246.59	434.66	71.43	201.57	586.32	1379	275.87	518.84	830.12	-40.649	567.08	31.443	193.68	340.93	190.93	398.08	638.33	29.141	273.95	478.93	58.249	353.08	375.62	184.93	312.94	432.37	1249.9	25.017	405.69	1073.1	466.4	274.83	174.42	352.58
413	2.065	488.4	1601.3	353.93	544.55	951.31	420.91	525.95	1413	440.72	480.92	1224.9	526.12	488.31	959.51	576.41	544.91	783.38	574.23	457.2	1458	293.47	478.39	990.23	-25.308	435.15	1100.4	557.77	586.11	569.71	455.18	618.32	684.97	444.73	378.82	1124.4	91.242	470.09	233.32	360.4	601.93	668.48	133.21	517.93	747.07	466.38	595.72	376.32	362.28	603.6	474.69	444.84	456.07	67.823	324.4	520.43	312.96	434.74	430.43	74.909	403.6	536.03	304.83	363.79	488.53	1444.1	117.05	539.27	572.35	113.58	397.92	1125.2	14.09	562.31	839.67	531.76	534.3	660.51	94.856	458.43	871.05	-22.694	381.59	980.06	206.59	371.11	976.45	311.17	561.72	364.54	202.62	366.92	1146.1	269.11	533.15	883.97	9.7623	532.91	454.78	134.77	493.65	829.61	568.49	483.69	1593.1	215.15	516.59	186.08	225.01	514.98	272.4	145.62	671.53	1629.2	312.19	530.78	757.81	83.477	536.37	275.21	214.21	591.22	34.828	284.86	666.88	1618.6	231.83	388.78	1365	389.72	459.63	92.635	289.07	552.51	657.17	463.47	559.64	968.84	119.87	381.45	32.299	246	434.67	71.463	201.39	592.17	1379.3	276.25	531.14	832.37	-40.185	567.08	31.35	193.54	357.67	186.5	398.81	638.36	29.125	273.92	499.41	58.049	354.23	392.62	181.48	313.23	439.31	1250.7	24.871	409.34	1073.7	465.62	291.95	168.05	352.97
414	2.07	494.58	1601.6	354.52	550.9	951.59	420.8	531.44	1413.1	441.11	485.46	1224.8	526.12	491.39	959.32	576.14	544.91	782.54	574.46	463.32	1458.1	293.88	487.73	991.65	-25.414	438.15	1100.8	557.22	595.45	571.03	455.91	626.72	686.64	445.05	386.44	1124.2	90.531	485.94	232.05	360.9	605.53	667.7	133.2	525.83	748.12	467.25	609.14	377.95	362.36	614.6	476.09	445.31	476.39	66.583	325.36	534.11	312.89	435.08	450.64	72.948	404.53	549.48	305.31	364.6	494.7	1444.6	117.39	541.59	572.3	113.16	405.66	1125.6	13.351	562.47	838.43	532.48	538.08	660.07	94.296	469.85	871.88	-22.545	387.44	980.46	206.62	376.99	976.84	311.35	562.65	364.32	201.71	373.11	1146.2	269.24	543.97	886.19	10.377	533.75	454.65	134.14	493.43	829.07	568.73	489.61	1593.5	215.83	516.9	185.96	224.54	515.19	272.18	145.06	677.78	1629.4	312.9	535.54	757.98	83.707	537	274.96	213.54	591.23	34.842	284.75	673.07	1618.7	232.43	394.55	1365	389.63	459.57	92.634	289.12	560.99	657.73	464.47	565.51	969.09	119.88	381.4	32.513	245.76	434.65	71.388	201.23	598.13	1379.6	276.6	543.09	834.62	-39.736	567.09	31.241	193.35	374.71	182.27	399.27	638.35	29.115	273.87	520.31	58.266	355.46	409.73	178.02	313.87	446.42	1251.2	24.396	413.25	1074.4	465.06	309.44	161.68	353.19
415	2.075	500.75	1601.5	355.3	557.45	951.66	420.68	537.15	1412.9	441.26	489.85	1224.8	525.93	492.79	959	575.81	543.54	781.41	575.34	469.09	1458.1	294.08	497.49	992.7	-25.568	441.52	1101.1	556.61	605.33	572.44	456.18	634.73	688.42	445.2	394	1124.1	89.902	502.19	230.57	361.42	609.89	666.94	132.91	533.85	748.91	467.46	621.15	379.43	363.02	624.96	477.75	445.86	497.26	65	325.97	547.95	312.42	435.63	470.83	70.956	405.49	562.42	305.88	365.4	500.89	1445	117.72	544.17	572.19	112.76	413.12	1125.8	12.502	562.8	836.93	533.09	542.04	660.02	93.855	481.38	873.04	-22.107	393.37	980.44	207.22	383.01	977.07	311.77	563.5	364.24	200.78	379.07	1146.3	269.27	555.2	888.42	10.681	534.79	454.5	133.74	493.51	828.67	568.96	495.46	1593.8	216.74	517	185.75	224.23	515.44	272.04	144.45	683.83	1629.2	313.53	540.35	758.05	83.645	537.45	274.95	212.91	591.25	34.866	284.67	679.05	1618.9	233.15	400.15	1365	389.37	459.81	92.581	288.84	570.05	659	465.37	571.14	968.79	119.97	381.38	32.563	245.72	434.75	71.533	200.96	604.17	1379.6	276.8	555.31	836.72	-39.188	567.15	31.152	193.21	391.87	177.66	399.66	638.35	29.055	273.86	541.34	58.772	356.95	426.59	174.34	314.41	453.11	1251.8	24.035	417.37	1074.8	464.91	327.12	155.13	353.66
416	2.08	506.88	1601.3	356.2	563.76	951.53	420.75	543.03	1412.6	441.49	494.35	1224.6	525.78	493.91	958.77	575.95	542.15	780.14	576.29	475.17	1458	293.89	507.35	993.96	-25.649	445.15	1101.3	555.99	615.05	573.66	456.73	642.86	690.14	445.19	401.37	1124.2	89.063	517.97	228.85	362	612.98	666.06	133.42	541.63	749.54	467.38	632.71	380.63	363.96	635.32	479.15	446.61	519.08	64.106	326.45	561.77	311.87	436.23	491.44	69.112	406.41	576.69	305.59	365.9	507.24	1445.2	117.84	547.06	572.12	112.42	420.34	1126	11.531	563.2	835.65	533.74	545.37	660.03	93.901	492.82	873.83	-22.003	399.11	980.28	207.36	389.23	976.96	312.23	563.94	363.87	200.08	384.7	1146.3	269.19	566.22	890.66	10.993	535.89	454.3	133.23	493.08	828.28	567.52	501.53	1594.2	217.54	516.87	185.56	224.07	515.75	271.95	143.96	689.97	1628.8	314.16	545.09	758.09	83.849	537.86	274.89	212.49	591.21	34.849	284.6	685.01	1618.8	233.73	406.01	1365	389.01	460.22	92.775	288.46	578.56	660.47	466.08	576.8	968.52	120.11	381.4	32.574	245.74	434.88	71.631	200.72	610.23	1379.7	277.1	567.41	838.93	-38.608	566.9	31.092	192.91	409.33	172.84	400.09	638.36	29.015	273.86	562.41	59.101	358.17	444.08	170.78	315.18	459.85	1252.4	23.834	421.14	1075.1	464	344.95	148	353.83
